<?xml version="1.0" standalone="no"?>
<!DOCTYPE svg PUBLIC "-//W3C//DTD SVG 20010904//EN"
 "http://www.w3.org/TR/2001/REC-SVG-20010904/DTD/svg10.dtd">
<svg version="1.0" xmlns="http://www.w3.org/2000/svg"
 width="500.000000pt" height="500.000000pt" viewBox="0 0 500.000000 500.000000"
 preserveAspectRatio="xMidYMid meet">
<metadata>
Created by potrace 1.16, written by Peter Selinger 2001-2019
</metadata>
<g transform="translate(0.000000,500.000000) scale(0.100000,-0.100000)"
fill="#000000" stroke="none">
<path d="M1430 4304 c-50 -4 -184 -31 -215 -44 -87 -35 -119 -50 -180 -87 -71
-42 -224 -187 -269 -254 -22 -33 -45 -72 -96 -164 -67 -122 -98 -349 -80 -575
16 -198 56 -314 166 -476 61 -90 121 -153 216 -224 80 -60 272 -160 307 -160
11 0 22 -4 25 -9 3 -5 22 -12 42 -16 20 -3 44 -10 53 -14 9 -5 75 -27 146 -51
183 -59 266 -102 325 -168 107 -120 122 -187 118 -522 l-3 -255 -275 0 c-274
1 -275 1 -331 27 -64 29 -135 97 -167 160 -48 94 -52 121 -52 319 l0 189 -285
0 -285 0 0 -239 c0 -203 3 -249 19 -312 33 -126 42 -150 80 -224 136 -260 377
-439 661 -491 96 -17 692 -20 772 -3 96 21 157 65 258 188 25 30 63 75 85 101
22 25 78 93 125 149 47 57 117 140 155 185 181 209 169 168 175 581 l5 340
290 3 c320 3 361 -1 460 -52 340 -175 339 -720 -2 -882 -79 -37 -144 -44 -437
-44 l-258 0 -32 -32 c-38 -40 -44 -48 -208 -278 -88 -123 -98 -142 -98 -179 1
-40 14 -62 47 -79 28 -16 788 -16 934 -1 179 18 370 91 488 186 210 170 334
382 381 658 14 79 8 337 -9 425 -38 193 -120 347 -258 482 l-78 76 53 63 c72
86 104 133 150 220 60 116 91 218 113 377 19 135 -3 297 -62 459 -24 67 -89
197 -100 201 -5 2 -9 8 -9 14 0 17 -86 121 -147 178 -110 103 -240 180 -358
214 -33 9 -73 22 -90 28 -22 9 -307 13 -1125 14 -602 0 -1115 -1 -1140 -2z
m2151 -591 c70 -22 145 -68 190 -115 47 -50 95 -147 114 -228 19 -86 19 -117
-5 -201 -45 -165 -157 -287 -307 -335 -51 -17 -93 -19 -353 -19 l-295 0 -5
255 -5 255 -290 0 -290 0 -5 -462 -5 -462 -55 56 c-133 135 -346 265 -545 331
-349 117 -456 184 -522 329 -31 68 -42 202 -23 284 25 109 121 240 209 284 89
45 54 44 1122 44 931 1 1021 0 1070 -16z"/>
</g>
</svg>
